<svg width="165" height="34" viewBox="0 0 165 34" fill="none" xmlns="http://www.w3.org/2000/svg">
<path d="M17.4654 1.76623C18.8141 -0.588747 22.1859 -0.588742 23.5346 1.76624L28.8451 11.039C30.1939 13.3939 28.508 16.3377 25.8105 16.3377H15.1894C12.492 16.3377 10.8061 13.3939 12.1549 11.039L17.4654 1.76623Z" fill="#5B5EE5"/>
<path d="M29.1456 19.4286C30.4943 17.0736 33.8661 17.0736 35.2148 19.4286L40.5253 28.7013C41.874 31.0563 40.1881 34 37.4907 34H26.8696C24.1722 34 22.4863 31.0563 23.835 28.7013L29.1456 19.4286Z" fill="#5B5EE5"/>
<path d="M5.78523 19.4286C7.13394 17.0736 10.5057 17.0736 11.8544 19.4286L17.165 28.7013C18.5137 31.0563 16.8278 34 14.1304 34H3.50927C0.811854 34 -0.874028 31.0563 0.474683 28.7013L5.78523 19.4286Z" fill="#5B5EE5"/>
<path d="M56.216 26.24C55.16 26.24 54.168 26.088 53.24 25.784C52.328 25.464 51.536 25.016 50.864 24.44L52.184 22.856C52.808 23.352 53.448 23.736 54.104 24.008C54.776 24.264 55.456 24.392 56.144 24.392C57.008 24.392 57.712 24.224 58.256 23.888C58.8 23.552 59.072 23.112 59.072 22.568C59.072 22.12 58.912 21.768 58.592 21.512C58.272 21.256 57.776 21.08 57.104 20.984L54.896 20.672C53.68 20.496 52.768 20.12 52.16 19.544C51.552 18.968 51.248 18.2 51.248 17.24C51.248 16.504 51.448 15.864 51.848 15.32C52.248 14.76 52.808 14.328 53.528 14.024C54.248 13.704 55.088 13.544 56.048 13.544C56.928 13.544 57.776 13.672 58.592 13.928C59.408 14.184 60.192 14.584 60.944 15.128L59.72 16.712C59.048 16.264 58.392 15.936 57.752 15.728C57.128 15.52 56.496 15.416 55.856 15.416C55.12 15.416 54.528 15.576 54.08 15.896C53.632 16.2 53.408 16.6 53.408 17.096C53.408 17.544 53.56 17.896 53.864 18.152C54.184 18.392 54.704 18.56 55.424 18.656L57.632 18.968C58.848 19.144 59.768 19.52 60.392 20.096C61.016 20.656 61.328 21.416 61.328 22.376C61.328 23.112 61.104 23.776 60.656 24.368C60.208 24.944 59.6 25.4 58.832 25.736C58.064 26.072 57.192 26.24 56.216 26.24ZM68.1699 26.216C66.9859 26.216 66.0819 25.944 65.4579 25.4C64.8339 24.84 64.5219 24.032 64.5219 22.976V15.8H61.9299V13.784H64.5219V10.664L66.8979 10.088V13.784H70.4979V15.8H66.8979V22.424C66.8979 23.048 67.0339 23.496 67.3059 23.768C67.5939 24.024 68.0579 24.152 68.6979 24.152C69.0339 24.152 69.3299 24.128 69.5859 24.08C69.8579 24.032 70.1459 23.96 70.4499 23.864V25.88C70.1299 25.992 69.7539 26.072 69.3219 26.12C68.9059 26.184 68.5219 26.216 68.1699 26.216ZM73.85 26.168C73.434 26.168 73.074 26.024 72.77 25.736C72.482 25.432 72.338 25.072 72.338 24.656C72.338 24.24 72.482 23.888 72.77 23.6C73.074 23.296 73.434 23.144 73.85 23.144C74.266 23.144 74.618 23.296 74.906 23.6C75.21 23.888 75.362 24.24 75.362 24.656C75.362 25.072 75.21 25.432 74.906 25.736C74.618 26.024 74.266 26.168 73.85 26.168ZM83.2816 26V13.784H85.6816V14.96C86.5936 14.016 87.7376 13.544 89.1136 13.544C89.9456 13.544 90.6816 13.728 91.3216 14.096C91.9776 14.464 92.4976 14.96 92.8816 15.584C93.3936 14.912 93.9936 14.408 94.6816 14.072C95.3696 13.72 96.1456 13.544 97.0096 13.544C97.9216 13.544 98.7136 13.744 99.3856 14.144C100.074 14.544 100.61 15.104 100.994 15.824C101.394 16.544 101.594 17.376 101.594 18.32V26H99.1936V18.728C99.1936 17.768 98.9376 17.016 98.4256 16.472C97.9296 15.912 97.2496 15.632 96.3856 15.632C95.7936 15.632 95.2576 15.768 94.7776 16.04C94.2976 16.312 93.8816 16.728 93.5296 17.288C93.5616 17.448 93.5856 17.616 93.6016 17.792C93.6176 17.968 93.6256 18.144 93.6256 18.32V26H91.2496V18.728C91.2496 17.768 90.9936 17.016 90.4816 16.472C89.9856 15.912 89.3056 15.632 88.4416 15.632C87.8656 15.632 87.3456 15.76 86.8816 16.016C86.4176 16.256 86.0176 16.624 85.6816 17.12V26H83.2816ZM104.352 26V13.784H106.752V26H104.352ZM105.552 11.816C105.152 11.816 104.808 11.672 104.52 11.384C104.232 11.08 104.088 10.728 104.088 10.328C104.088 9.912 104.232 9.568 104.52 9.296C104.808 9.008 105.152 8.864 105.552 8.864C105.968 8.864 106.32 9.008 106.608 9.296C106.896 9.568 107.04 9.912 107.04 10.328C107.04 10.728 106.896 11.08 106.608 11.384C106.32 11.672 105.968 11.816 105.552 11.816ZM113.778 26.24C112.722 26.24 111.73 26.088 110.802 25.784C109.89 25.464 109.098 25.016 108.426 24.44L109.746 22.856C110.37 23.352 111.01 23.736 111.666 24.008C112.338 24.264 113.018 24.392 113.706 24.392C114.57 24.392 115.274 24.224 115.818 23.888C116.362 23.552 116.634 23.112 116.634 22.568C116.634 22.12 116.474 21.768 116.154 21.512C115.834 21.256 115.338 21.08 114.666 20.984L112.458 20.672C111.242 20.496 110.33 20.12 109.722 19.544C109.114 18.968 108.81 18.2 108.81 17.24C108.81 16.504 109.01 15.864 109.41 15.32C109.81 14.76 110.37 14.328 111.09 14.024C111.81 13.704 112.65 13.544 113.61 13.544C114.49 13.544 115.338 13.672 116.154 13.928C116.97 14.184 117.754 14.584 118.506 15.128L117.282 16.712C116.61 16.264 115.954 15.936 115.314 15.728C114.69 15.52 114.058 15.416 113.418 15.416C112.682 15.416 112.09 15.576 111.642 15.896C111.194 16.2 110.97 16.6 110.97 17.096C110.97 17.544 111.122 17.896 111.426 18.152C111.746 18.392 112.266 18.56 112.986 18.656L115.194 18.968C116.41 19.144 117.33 19.52 117.954 20.096C118.578 20.656 118.89 21.416 118.89 22.376C118.89 23.112 118.666 23.776 118.218 24.368C117.77 24.944 117.162 25.4 116.394 25.736C115.626 26.072 114.754 26.24 113.778 26.24ZM124.935 26.24C123.879 26.24 122.887 26.088 121.959 25.784C121.047 25.464 120.255 25.016 119.583 24.44L120.903 22.856C121.527 23.352 122.167 23.736 122.823 24.008C123.495 24.264 124.175 24.392 124.863 24.392C125.727 24.392 126.431 24.224 126.975 23.888C127.519 23.552 127.791 23.112 127.791 22.568C127.791 22.12 127.631 21.768 127.311 21.512C126.991 21.256 126.495 21.08 125.823 20.984L123.615 20.672C122.399 20.496 121.487 20.12 120.879 19.544C120.271 18.968 119.967 18.2 119.967 17.24C119.967 16.504 120.167 15.864 120.567 15.32C120.967 14.76 121.527 14.328 122.247 14.024C122.967 13.704 123.807 13.544 124.767 13.544C125.647 13.544 126.495 13.672 127.311 13.928C128.127 14.184 128.911 14.584 129.663 15.128L128.439 16.712C127.767 16.264 127.111 15.936 126.471 15.728C125.847 15.52 125.215 15.416 124.575 15.416C123.839 15.416 123.247 15.576 122.799 15.896C122.351 16.2 122.127 16.6 122.127 17.096C122.127 17.544 122.279 17.896 122.583 18.152C122.903 18.392 123.423 18.56 124.143 18.656L126.351 18.968C127.567 19.144 128.487 19.52 129.111 20.096C129.735 20.656 130.047 21.416 130.047 22.376C130.047 23.112 129.823 23.776 129.375 24.368C128.927 24.944 128.319 25.4 127.551 25.736C126.783 26.072 125.911 26.24 124.935 26.24ZM131.891 26V13.784H134.291V26H131.891ZM133.091 11.816C132.691 11.816 132.347 11.672 132.059 11.384C131.771 11.08 131.627 10.728 131.627 10.328C131.627 9.912 131.771 9.568 132.059 9.296C132.347 9.008 132.691 8.864 133.091 8.864C133.507 8.864 133.859 9.008 134.147 9.296C134.435 9.568 134.579 9.912 134.579 10.328C134.579 10.728 134.435 11.08 134.147 11.384C133.859 11.672 133.507 11.816 133.091 11.816ZM142.926 26.24C141.742 26.24 140.662 25.96 139.686 25.4C138.726 24.84 137.966 24.08 137.406 23.12C136.846 22.16 136.566 21.088 136.566 19.904C136.566 18.72 136.846 17.648 137.406 16.688C137.966 15.728 138.726 14.968 139.686 14.408C140.662 13.832 141.742 13.544 142.926 13.544C144.126 13.544 145.206 13.832 146.166 14.408C147.126 14.968 147.886 15.728 148.446 16.688C149.006 17.648 149.286 18.72 149.286 19.904C149.286 21.088 149.006 22.16 148.446 23.12C147.886 24.08 147.126 24.84 146.166 25.4C145.206 25.96 144.126 26.24 142.926 26.24ZM142.926 24.128C143.678 24.128 144.358 23.944 144.966 23.576C145.574 23.192 146.054 22.68 146.406 22.04C146.758 21.4 146.934 20.68 146.934 19.88C146.934 19.096 146.75 18.392 146.382 17.768C146.03 17.128 145.55 16.616 144.942 16.232C144.35 15.848 143.678 15.656 142.926 15.656C142.174 15.656 141.494 15.848 140.886 16.232C140.294 16.616 139.814 17.128 139.446 17.768C139.094 18.392 138.918 19.096 138.918 19.88C138.918 20.68 139.094 21.4 139.446 22.04C139.798 22.68 140.278 23.192 140.886 23.576C141.494 23.944 142.174 24.128 142.926 24.128ZM151.555 26V13.784H153.955V15.032C154.899 14.04 156.123 13.544 157.627 13.544C158.571 13.544 159.395 13.744 160.099 14.144C160.819 14.544 161.379 15.104 161.779 15.824C162.195 16.544 162.403 17.376 162.403 18.32V26H160.003V18.728C160.003 17.768 159.731 17.016 159.187 16.472C158.659 15.912 157.915 15.632 156.955 15.632C156.315 15.632 155.739 15.768 155.227 16.04C154.715 16.312 154.291 16.704 153.955 17.216V26H151.555Z" fill="#1F1F1F"/>
</svg>
